REM DIRINDEX 1\2\4\18,1\2\4\19,1\2\5\20,1\2\5\21,1\2\6\22,1\2\7\23,1\2\8\24,1\2\8\25,1\2\9\26,1\2\10\27,1\3\11\28,1\3\11\29,1\3\11\30,1\3\11\31,1\3\12\32,1\3\12\33,1\3\12\34,1\3\12\35,1\3\13\36,1\3\13\37,1\3\14\38,1\3\14\39,1\3\15\40,1\3\15\41,1\3\15\42,1\3\16\43,1\3\16\44,1\3\17\45,1\3\17\46
REM DIRNAME cjc023,folder01,folder02,folder03,folder04,folder05,folder06,folder07,folder08,folder09,folder10,folder11,folder12,folder13,folder14,folder15,folder16,folder17,folder18,folder19,folder20,folder21,folder22,folder23,folder24,folder25,folder26,folder27,folder28,folder29,folder30,folder31,folder32,folder33,folder34,folder35,folder36,folder37,folder38,folder39,folder40,folder41,folder42,folder43,folder44,folder45
TITLE ""
FILE "04.mp3" MP3
  TRACK 01 AUDIO
    TITLE "0:"
    INDEX 01 00:00:00
  TRACK 02 AUDIO
    TITLE "18:cjc023_0601"
    INDEX 01 00:00:15
  TRACK 03 AUDIO
    TITLE "0:"
    INDEX 01 00:01:28
  TRACK 04 AUDIO
    TITLE "19:cjc023_0602"
    INDEX 01 00:01:50
  TRACK 05 AUDIO
    TITLE "0:"
    INDEX 01 00:03:45
  TRACK 06 AUDIO
    TITLE "18:cjc023_0603"
    INDEX 01 00:04:42
  TRACK 07 AUDIO
    TITLE "0:"
    INDEX 01 00:05:61
  TRACK 08 AUDIO
    TITLE "19:cjc023_0604"
    INDEX 01 00:06:08
  TRACK 09 AUDIO
    TITLE "0:"
    INDEX 01 00:09:18
  TRACK 10 AUDIO
    TITLE "18:cjc023_0605"
    INDEX 01 00:10:16
  TRACK 11 AUDIO
    TITLE "0:"
    INDEX 01 00:11:27
  TRACK 12 AUDIO
    TITLE "19:cjc023_0606"
    INDEX 01 00:11:50
  TRACK 13 AUDIO
    TITLE "0:"
    INDEX 01 00:13:51
  TRACK 14 AUDIO
    TITLE "18:cjc023_0607"
    INDEX 01 00:14:53
  TRACK 15 AUDIO
    TITLE "0:"
    INDEX 01 00:15:50
  TRACK 16 AUDIO
    TITLE "19:cjc023_0608"
    INDEX 01 00:16:00
  TRACK 17 AUDIO
    TITLE "0:"
    INDEX 01 00:17:57
  TRACK 18 AUDIO
    TITLE "18:cjc023_0609"
    INDEX 01 00:18:52
  TRACK 19 AUDIO
    TITLE "0:"
    INDEX 01 00:19:60
  TRACK 20 AUDIO
    TITLE "19:cjc023_0610"
    INDEX 01 00:20:12
  TRACK 21 AUDIO
    TITLE "0:"
    INDEX 01 00:22:03
  TRACK 22 AUDIO
    TITLE "18:cjc023_0611"
    INDEX 01 00:23:01
  TRACK 23 AUDIO
    TITLE "0:"
    INDEX 01 00:24:33
  TRACK 24 AUDIO
    TITLE "19:cjc023_0612"
    INDEX 01 00:24:55
  TRACK 25 AUDIO
    TITLE "0:"
    INDEX 01 00:28:02
  TRACK 26 AUDIO
    TITLE "18:cjc023_0613"
    INDEX 01 00:29:05
  TRACK 27 AUDIO
    TITLE "0:"
    INDEX 01 00:30:26
  TRACK 28 AUDIO
    TITLE "19:cjc023_0614"
    INDEX 01 00:30:48
  TRACK 29 AUDIO
    TITLE "0:"
    INDEX 01 00:32:35
  TRACK 30 AUDIO
    TITLE "18:cjc023_0615"
    INDEX 01 00:33:32
  TRACK 31 AUDIO
    TITLE "0:"
    INDEX 01 00:34:57
  TRACK 32 AUDIO
    TITLE "19:cjc023_0616"
    INDEX 01 00:35:06
  TRACK 33 AUDIO
    TITLE "0:"
    INDEX 01 00:37:54
  TRACK 34 AUDIO
    TITLE "18:cjc023_0617"
    INDEX 01 00:38:51
  TRACK 35 AUDIO
    TITLE "0:"
    INDEX 01 00:40:03
  TRACK 36 AUDIO
    TITLE "19:cjc023_0618"
    INDEX 01 00:40:28
  TRACK 37 AUDIO
    TITLE "0:"
    INDEX 01 00:43:11
  TRACK 38 AUDIO
    TITLE "18:cjc023_0619"
    INDEX 01 00:44:11
  TRACK 39 AUDIO
    TITLE "0:"
    INDEX 01 00:45:39
  TRACK 40 AUDIO
    TITLE "19:cjc023_0620"
    INDEX 01 00:45:69
  TRACK 41 AUDIO
    TITLE "0:"
    INDEX 01 00:49:06
  TRACK 42 AUDIO
    TITLE "18:cjc023_0621"
    INDEX 01 00:49:74
  TRACK 43 AUDIO
    TITLE "0:"
    INDEX 01 00:51:16
  TRACK 44 AUDIO
    TITLE "19:cjc023_0622"
    INDEX 01 00:51:38
  TRACK 45 AUDIO
    TITLE "0:"
    INDEX 01 00:53:21
  TRACK 46 AUDIO
    TITLE "18:cjc023_0623"
    INDEX 01 00:54:21
  TRACK 47 AUDIO
    TITLE "0:"
    INDEX 01 00:55:51
  TRACK 48 AUDIO
    TITLE "19:cjc023_0624"
    INDEX 01 00:55:73
  TRACK 49 AUDIO
    TITLE "0:"
    INDEX 01 00:57:66
  TRACK 50 AUDIO
    TITLE "18:cjc023_0625"
    INDEX 01 00:58:64
  TRACK 51 AUDIO
    TITLE "0:"
    INDEX 01 00:59:69
  TRACK 52 AUDIO
    TITLE "19:cjc023_0626"
    INDEX 01 01:00:15
  TRACK 53 AUDIO
    TITLE "0:"
    INDEX 01 01:01:66
  TRACK 54 AUDIO
    TITLE "18:cjc023_0627"
    INDEX 01 01:02:63
  TRACK 55 AUDIO
    TITLE "0:"
    INDEX 01 01:03:69
  TRACK 56 AUDIO
    TITLE "19:cjc023_0628"
    INDEX 01 01:04:13
  TRACK 57 AUDIO
    TITLE "0:"
    INDEX 01 01:05:66
  TRACK 58 AUDIO
    TITLE "18:cjc023_0629"
    INDEX 01 01:06:59
  TRACK 59 AUDIO
    TITLE "0:"
    INDEX 01 01:07:70
  TRACK 60 AUDIO
    TITLE "19:cjc023_0630"
    INDEX 01 01:08:21
  TRACK 61 AUDIO
    TITLE "0:"
    INDEX 01 01:11:07
  TRACK 62 AUDIO
    TITLE "18:cjc023_0631"
    INDEX 01 01:12:03
  TRACK 63 AUDIO
    TITLE "0:"
    INDEX 01 01:13:18
  TRACK 64 AUDIO
    TITLE "19:cjc023_0632"
    INDEX 01 01:13:38
  TRACK 65 AUDIO
    TITLE "0:"
    INDEX 01 01:15:15
  TRACK 66 AUDIO
    TITLE "18:cjc023_0633"
    INDEX 01 01:16:12
  TRACK 67 AUDIO
    TITLE "0:"
    INDEX 01 01:17:39
  TRACK 68 AUDIO
    TITLE "19:cjc023_0634"
    INDEX 01 01:17:63
  TRACK 69 AUDIO
    TITLE "0:"
    INDEX 01 01:20:08
  TRACK 70 AUDIO
    TITLE "18:cjc023_0635"
    INDEX 01 01:21:06
  TRACK 71 AUDIO
    TITLE "0:"
    INDEX 01 01:22:33
  TRACK 72 AUDIO
    TITLE "19:cjc023_0636"
    INDEX 01 01:22:60
  TRACK 73 AUDIO
    TITLE "0:"
    INDEX 01 01:25:00
  TRACK 74 AUDIO
    TITLE "18:cjc023_0637"
    INDEX 01 01:25:72
  TRACK 75 AUDIO
    TITLE "0:"
    INDEX 01 01:27:08
  TRACK 76 AUDIO
    TITLE "19:cjc023_0638"
    INDEX 01 01:27:30
  TRACK 77 AUDIO
    TITLE "0:"
    INDEX 01 01:29:41
  TRACK 78 AUDIO
    TITLE "18:cjc023_0639"
    INDEX 01 01:30:44
  TRACK 79 AUDIO
    TITLE "0:"
    INDEX 01 01:31:57
  TRACK 80 AUDIO
    TITLE "19:cjc023_0640"
    INDEX 01 01:32:04
  TRACK 81 AUDIO
    TITLE "0:"
    INDEX 01 01:34:36
  TRACK 82 AUDIO
    TITLE "18:cjc023_0641"
    INDEX 01 01:35:33
  TRACK 83 AUDIO
    TITLE "0:"
    INDEX 01 01:36:66
  TRACK 84 AUDIO
    TITLE "19:cjc023_0642"
    INDEX 01 01:37:15
  TRACK 85 AUDIO
    TITLE "0:"
    INDEX 01 01:39:06
  TRACK 86 AUDIO
    TITLE "18:cjc023_0643"
    INDEX 01 01:40:03
  TRACK 87 AUDIO
    TITLE "0:"
    INDEX 01 01:41:14
  TRACK 88 AUDIO
    TITLE "19:cjc023_0644"
    INDEX 01 01:41:38
  TRACK 89 AUDIO
    TITLE "0:"
    INDEX 01 01:43:52
  TRACK 90 AUDIO
    TITLE "18:cjc023_0645"
    INDEX 01 01:44:48
  TRACK 91 AUDIO
    TITLE "0:"
    INDEX 01 01:45:57
  TRACK 92 AUDIO
    TITLE "19:cjc023_0646"
    INDEX 01 01:46:06
  TRACK 93 AUDIO
    TITLE "0:"
    INDEX 01 01:48:60
  TRACK 94 AUDIO
    TITLE "18:cjc023_0647"
    INDEX 01 01:49:59
  TRACK 95 AUDIO
    TITLE "0:"
    INDEX 01 01:50:72
  TRACK 96 AUDIO
    TITLE "19:cjc023_0648"
    INDEX 01 01:51:19
  TRACK 97 AUDIO
    TITLE "0:"
    INDEX 01 01:54:05
  TRACK 98 AUDIO
    TITLE "18:cjc023_0649"
    INDEX 01 01:55:09
  TRACK 99 AUDIO
    TITLE "0:"
    INDEX 01 01:56:30
  TRACK 100 AUDIO
    TITLE "19:cjc023_0650"
    INDEX 01 01:56:53
  TRACK 101 AUDIO
    TITLE "0:"
    INDEX 01 01:59:20
  TRACK 102 AUDIO
    TITLE "18:cjc023_0651"
    INDEX 01 02:00:18
  TRACK 103 AUDIO
    TITLE "0:"
    INDEX 01 02:01:39
  TRACK 104 AUDIO
    TITLE "19:cjc023_0652"
    INDEX 01 02:01:62
  TRACK 105 AUDIO
    TITLE "0:"
    INDEX 01 02:04:06
  TRACK 106 AUDIO
    TITLE "18:cjc023_0653"
    INDEX 01 02:05:09
  TRACK 107 AUDIO
    TITLE "0:"
    INDEX 01 02:06:14
  TRACK 108 AUDIO
    TITLE "19:cjc023_0654"
    INDEX 01 02:06:50
  TRACK 109 AUDIO
    TITLE "0:"
    INDEX 01 02:08:15
  TRACK 110 AUDIO
    TITLE "18:cjc023_0655"
    INDEX 01 02:09:17
  TRACK 111 AUDIO
    TITLE "0:"
    INDEX 01 02:10:30
  TRACK 112 AUDIO
    TITLE "19:cjc023_0656"
    INDEX 01 02:10:53
  TRACK 113 AUDIO
    TITLE "0:"
    INDEX 01 02:12:44
  TRACK 114 AUDIO
    TITLE "18:cjc023_0657"
    INDEX 01 02:13:40
  TRACK 115 AUDIO
    TITLE "0:"
    INDEX 01 02:14:51
  TRACK 116 AUDIO
    TITLE "19:cjc023_0658"
    INDEX 01 02:15:02
  TRACK 117 AUDIO
    TITLE "0:"
    INDEX 01 02:18:02
  TRACK 118 AUDIO
    TITLE "18:cjc023_0659"
    INDEX 01 02:19:01
  TRACK 119 AUDIO
    TITLE "0:"
    INDEX 01 02:20:20
  TRACK 120 AUDIO
    TITLE "19:cjc023_0660"
    INDEX 01 02:20:42
  TRACK 121 AUDIO
    TITLE "0:"
    INDEX 01 02:22:54
  TRACK 122 AUDIO
    TITLE "18:cjc023_0661"
    INDEX 01 02:23:50
  TRACK 123 AUDIO
    TITLE "0:"
    INDEX 01 02:24:59
  TRACK 124 AUDIO
    TITLE "19:cjc023_0662"
    INDEX 01 02:25:10
  TRACK 125 AUDIO
    TITLE "0:"
    INDEX 01 02:28:12
  TRACK 126 AUDIO
    TITLE "18:cjc023_0663"
    INDEX 01 02:29:06
  TRACK 127 AUDIO
    TITLE "0:"
    INDEX 01 02:30:38
  TRACK 128 AUDIO
    TITLE "19:cjc023_0664"
    INDEX 01 02:30:58
  TRACK 129 AUDIO
    TITLE "0:"
    INDEX 01 02:33:15
  TRACK 130 AUDIO
    TITLE "18:cjc023_0665"
    INDEX 01 02:34:13
  TRACK 131 AUDIO
    TITLE "0:"
    INDEX 01 02:35:41
  TRACK 132 AUDIO
    TITLE "19:cjc023_0666"
    INDEX 01 02:35:67
  TRACK 133 AUDIO
    TITLE "0:"
    INDEX 01 02:37:74
  TRACK 134 AUDIO
    TITLE "18:cjc023_0667"
    INDEX 01 02:38:73
  TRACK 135 AUDIO
    TITLE "0:"
    INDEX 01 02:40:00
  TRACK 136 AUDIO
    TITLE "19:cjc023_0668"
    INDEX 01 02:40:21
  TRACK 137 AUDIO
    TITLE "0:"
    INDEX 01 02:42:08
  TRACK 138 AUDIO
    TITLE "18:cjc023_0669"
    INDEX 01 02:43:06
  TRACK 139 AUDIO
    TITLE "0:"
    INDEX 01 02:44:15
  TRACK 140 AUDIO
    TITLE "19:cjc023_0670"
    INDEX 01 02:44:40
  TRACK 141 AUDIO
    TITLE "0:"
    INDEX 01 02:46:02
  TRACK 142 AUDIO
    TITLE "18:cjc023_0671"
    INDEX 01 02:47:05
  TRACK 143 AUDIO
    TITLE "0:"
    INDEX 01 02:48:09
  TRACK 144 AUDIO
    TITLE "19:cjc023_0672"
    INDEX 01 02:48:32
  TRACK 145 AUDIO
    TITLE "0:"
    INDEX 01 02:50:51
  TRACK 146 AUDIO
    TITLE "18:cjc023_0673"
    INDEX 01 02:51:44
  TRACK 147 AUDIO
    TITLE "0:"
    INDEX 01 02:52:42
  TRACK 148 AUDIO
    TITLE "19:cjc023_0674"
    INDEX 01 02:52:60
  TRACK 149 AUDIO
    TITLE "0:"
    INDEX 01 02:54:62
  TRACK 150 AUDIO
    TITLE "18:cjc023_0675"
    INDEX 01 02:55:60
  TRACK 151 AUDIO
    TITLE "0:"
    INDEX 01 02:56:69
  TRACK 152 AUDIO
    TITLE "19:cjc023_0676"
    INDEX 01 02:57:18
  TRACK 153 AUDIO
    TITLE "0:"
    INDEX 01 03:00:00
  TRACK 154 AUDIO
    TITLE "18:cjc023_0677"
    INDEX 01 03:00:73
  TRACK 155 AUDIO
    TITLE "0:"
    INDEX 01 03:02:09
  TRACK 156 AUDIO
    TITLE "19:cjc023_0678"
    INDEX 01 03:02:30
  TRACK 157 AUDIO
    TITLE "0:"
    INDEX 01 03:04:22
  TRACK 158 AUDIO
    TITLE "18:cjc023_0679"
    INDEX 01 03:05:15
  TRACK 159 AUDIO
    TITLE "0:"
    INDEX 01 03:06:24
  TRACK 160 AUDIO
    TITLE "19:cjc023_0680"
    INDEX 01 03:06:42
  TRACK 161 AUDIO
    TITLE "0:"
    INDEX 01 03:08:64
  TRACK 162 AUDIO
    TITLE "18:cjc023_0681"
    INDEX 01 03:09:60
  TRACK 163 AUDIO
    TITLE "0:"
    INDEX 01 03:10:71
  TRACK 164 AUDIO
    TITLE "19:cjc023_0682"
    INDEX 01 03:11:22
  TRACK 165 AUDIO
    TITLE "0:"
    INDEX 01 03:15:29
  TRACK 166 AUDIO
    TITLE "18:cjc023_0683"
    INDEX 01 03:16:29
  TRACK 167 AUDIO
    TITLE "0:"
    INDEX 01 03:17:50
  TRACK 168 AUDIO
    TITLE "19:cjc023_0684"
    INDEX 01 03:17:73
  TRACK 169 AUDIO
    TITLE "0:"
    INDEX 01 03:20:38
  TRACK 170 AUDIO
    TITLE "18:cjc023_0685"
    INDEX 01 03:21:40
  TRACK 171 AUDIO
    TITLE "0:"
    INDEX 01 03:22:51
  TRACK 172 AUDIO
    TITLE "19:cjc023_0686"
    INDEX 01 03:23:01
  TRACK 173 AUDIO
    TITLE "0:"
    INDEX 01 03:24:67
  TRACK 174 AUDIO
    TITLE "18:cjc023_0687"
    INDEX 01 03:25:67
  TRACK 175 AUDIO
    TITLE "0:"
    INDEX 01 03:27:15
  TRACK 176 AUDIO
    TITLE "19:cjc023_0688"
    INDEX 01 03:27:38
  TRACK 177 AUDIO
    TITLE "0:"
    INDEX 01 03:30:01
  TRACK 178 AUDIO
    TITLE "18:cjc023_0689"
    INDEX 01 03:30:74
  TRACK 179 AUDIO
    TITLE "0:"
    INDEX 01 03:32:36
  TRACK 180 AUDIO
    TITLE "19:cjc023_0690"
    INDEX 01 03:32:55
  TRACK 181 AUDIO
    TITLE "0:"
    INDEX 01 03:35:32
  TRACK 182 AUDIO
    TITLE "18:cjc023_0691"
    INDEX 01 03:36:31
  TRACK 183 AUDIO
    TITLE "0:"
    INDEX 01 03:37:50
  TRACK 184 AUDIO
    TITLE "19:cjc023_0692"
    INDEX 01 03:37:74
  TRACK 185 AUDIO
    TITLE "0:"
    INDEX 01 03:39:71
  TRACK 186 AUDIO
    TITLE "18:cjc023_0693"
    INDEX 01 03:40:70
  TRACK 187 AUDIO
    TITLE "0:"
    INDEX 01 03:42:14
  TRACK 188 AUDIO
    TITLE "19:cjc023_0694"
    INDEX 01 03:42:38
  TRACK 189 AUDIO
    TITLE "0:"
    INDEX 01 03:44:23
  TRACK 190 AUDIO
    TITLE "18:cjc023_0695"
    INDEX 01 03:45:22
  TRACK 191 AUDIO
    TITLE "0:"
    INDEX 01 03:46:45
  TRACK 192 AUDIO
    TITLE "19:cjc023_0696"
    INDEX 01 03:46:67
  TRACK 193 AUDIO
    TITLE "0:"
    INDEX 01 03:49:14
  TRACK 194 AUDIO
    TITLE "18:cjc023_0697"
    INDEX 01 03:50:14
  TRACK 195 AUDIO
    TITLE "0:"
    INDEX 01 03:51:35
  TRACK 196 AUDIO
    TITLE "19:cjc023_0698"
    INDEX 01 03:51:58
  TRACK 197 AUDIO
    TITLE "0:"
    INDEX 01 03:55:03
  TRACK 198 AUDIO
    TITLE "18:cjc023_0699"
    INDEX 01 03:56:03
  TRACK 199 AUDIO
    TITLE "0:"
    INDEX 01 03:57:08
  TRACK 200 AUDIO
    TITLE "19:cjc023_0700"
    INDEX 01 03:57:32
  TRACK 201 AUDIO
    TITLE "0:"
    INDEX 01 03:59:30
  TRACK 202 AUDIO
    TITLE "18:cjc023_0701"
    INDEX 01 04:00:28
  TRACK 203 AUDIO
    TITLE "0:"
    INDEX 01 04:01:39
  TRACK 204 AUDIO
    TITLE "19:cjc023_0702"
    INDEX 01 04:01:61
  TRACK 205 AUDIO
    TITLE "0:"
    INDEX 01 04:05:23
  TRACK 206 AUDIO
    TITLE "18:cjc023_0703"
    INDEX 01 04:06:21
  TRACK 207 AUDIO
    TITLE "0:"
    INDEX 01 04:07:18
  TRACK 208 AUDIO
    TITLE "19:cjc023_0704"
    INDEX 01 04:07:40
  TRACK 209 AUDIO
    TITLE "0:"
    INDEX 01 04:09:60
  TRACK 210 AUDIO
    TITLE "18:cjc023_0705"
    INDEX 01 04:10:56
  TRACK 211 AUDIO
    TITLE "0:"
    INDEX 01 04:11:65
  TRACK 212 AUDIO
    TITLE "19:cjc023_0706"
    INDEX 01 04:12:13
  TRACK 213 AUDIO
    TITLE "0:"
    INDEX 01 04:14:24
  TRACK 214 AUDIO
    TITLE "18:cjc023_0707"
    INDEX 01 04:15:18
  TRACK 215 AUDIO
    TITLE "0:"
    INDEX 01 04:16:21
  TRACK 216 AUDIO
    TITLE "19:cjc023_0708"
    INDEX 01 04:16:43
  TRACK 217 AUDIO
    TITLE "0:"
    INDEX 01 04:18:06
  TRACK 218 AUDIO
    TITLE "18:cjc023_0709"
    INDEX 01 04:19:06
  TRACK 219 AUDIO
    TITLE "0:"
    INDEX 01 04:20:11
  TRACK 220 AUDIO
    TITLE "19:cjc023_0710"
    INDEX 01 04:20:35
  TRACK 221 AUDIO
    TITLE "0:"
    INDEX 01 04:22:63
  TRACK 222 AUDIO
    TITLE "18:cjc023_0711"
    INDEX 01 04:23:60
  TRACK 223 AUDIO
    TITLE "0:"
    INDEX 01 04:24:73
  TRACK 224 AUDIO
    TITLE "19:cjc023_0712"
    INDEX 01 04:25:18
  TRACK 225 AUDIO
    TITLE "0:"
    INDEX 01 04:27:27
  TRACK 226 AUDIO
    TITLE "18:cjc023_0713"
    INDEX 01 04:28:30
  TRACK 227 AUDIO
    TITLE "0:"
    INDEX 01 04:29:45
  TRACK 228 AUDIO
    TITLE "19:cjc023_0714"
    INDEX 01 04:29:65
  TRACK 229 AUDIO
    TITLE "0:"
    INDEX 01 04:31:44
  TRACK 230 AUDIO
    TITLE "18:cjc023_0715"
    INDEX 01 04:32:40
  TRACK 231 AUDIO
    TITLE "0:"
    INDEX 01 04:33:57
  TRACK 232 AUDIO
    TITLE "19:cjc023_0716"
    INDEX 01 04:34:03
  TRACK 233 AUDIO
    TITLE "0:"
    INDEX 01 04:36:47
  TRACK 234 AUDIO
    TITLE "18:cjc023_0717"
    INDEX 01 04:37:45
  TRACK 235 AUDIO
    TITLE "0:"
    INDEX 01 04:38:68
  TRACK 236 AUDIO
    TITLE "19:cjc023_0718"
    INDEX 01 04:39:14
  TRACK 237 AUDIO
    TITLE "0:"
    INDEX 01 04:41:05
  TRACK 238 AUDIO
    TITLE "18:cjc023_0719"
    INDEX 01 04:42:05
  TRACK 239 AUDIO
    TITLE "0:"
    INDEX 01 04:43:12
  TRACK 240 AUDIO
    TITLE "19:cjc023_0720"
    INDEX 01 04:43:39
  TRACK 241 AUDIO
    TITLE "0:"
    INDEX 01 04:45:40
  TRACK 242 AUDIO
    TITLE "18:cjc023_0721"
    INDEX 01 04:46:34
  TRACK 243 AUDIO
    TITLE "0:"
    INDEX 01 04:47:45
  TRACK 244 AUDIO
    TITLE "19:cjc023_0722"
    INDEX 01 04:47:69
  TRACK 245 AUDIO
    TITLE "0:"
    INDEX 01 04:49:60
  TRACK 246 AUDIO
    TITLE "18:cjc023_0723"
    INDEX 01 04:50:61
  TRACK 247 AUDIO
    TITLE "0:"
    INDEX 01 04:51:72
  TRACK 248 AUDIO
    TITLE "19:cjc023_0724"
    INDEX 01 04:52:33
  TRACK 249 AUDIO
    TITLE "0:"
    INDEX 01 04:55:21
  TRACK 250 AUDIO
    TITLE "18:cjc023_0725"
    INDEX 01 04:56:19
  TRACK 251 AUDIO
    TITLE "0:"
    INDEX 01 04:57:30
  TRACK 252 AUDIO
    TITLE "19:cjc023_0726"
    INDEX 01 04:57:53
  TRACK 253 AUDIO
    TITLE "0:"
    INDEX 01 04:59:44
  TRACK 254 AUDIO
    TITLE "18:cjc023_0727"
    INDEX 01 05:00:40
  TRACK 255 AUDIO
    TITLE "0:"
    INDEX 01 05:01:45
  TRACK 256 AUDIO
    TITLE "19:cjc023_0728"
    INDEX 01 05:01:71
  TRACK 257 AUDIO
    TITLE "0:"
    INDEX 01 05:03:54
  TRACK 258 AUDIO
    TITLE "18:cjc023_0729"
    INDEX 01 05:04:53
  TRACK 259 AUDIO
    TITLE "0:"
    INDEX 01 05:05:70
  TRACK 260 AUDIO
    TITLE "19:cjc023_0730"
    INDEX 01 05:06:15
  TRACK 261 AUDIO
    TITLE "0:"
    INDEX 01 05:08:39
  TRACK 262 AUDIO
    TITLE "18:cjc023_0731"
    INDEX 01 05:09:35
  TRACK 263 AUDIO
    TITLE "0:"
    INDEX 01 05:10:50
  TRACK 264 AUDIO
    TITLE "19:cjc023_0732"
    INDEX 01 05:10:74
  TRACK 265 AUDIO
    TITLE "0:"
    INDEX 01 05:14:03
  TRACK 266 AUDIO
    TITLE "18:cjc023_0733"
    INDEX 01 05:15:10
  TRACK 267 AUDIO
    TITLE "0:"
    INDEX 01 05:16:27
  TRACK 268 AUDIO
    TITLE "19:cjc023_0734"
    INDEX 01 05:16:47
  TRACK 269 AUDIO
    TITLE "0:"
    INDEX 01 05:18:46
  TRACK 270 AUDIO
    TITLE "18:cjc023_0735"
    INDEX 01 05:19:43
  TRACK 271 AUDIO
    TITLE "0:"
    INDEX 01 05:20:72
  TRACK 272 AUDIO
    TITLE "19:cjc023_0736"
    INDEX 01 05:21:24
  TRACK 273 AUDIO
    TITLE "0:"
    INDEX 01 05:23:35
  TRACK 274 AUDIO
    TITLE "18:cjc023_0737"
    INDEX 01 05:24:33
  TRACK 275 AUDIO
    TITLE "0:"
    INDEX 01 05:25:38
  TRACK 276 AUDIO
    TITLE "19:cjc023_0738"
    INDEX 01 05:25:59
  TRACK 277 AUDIO
    TITLE "0:"
    INDEX 01 05:27:49
  TRACK 278 AUDIO
    TITLE "18:cjc023_0739"
    INDEX 01 05:28:46
  TRACK 279 AUDIO
    TITLE "0:"
    INDEX 01 05:29:63
  TRACK 280 AUDIO
    TITLE "19:cjc023_0740"
    INDEX 01 05:30:10
  TRACK 281 AUDIO
    TITLE "0:"
    INDEX 01 05:32:38
  TRACK 282 AUDIO
    TITLE "18:cjc023_0741"
    INDEX 01 05:33:37
  TRACK 283 AUDIO
    TITLE "0:"
    INDEX 01 05:34:56
  TRACK 284 AUDIO
    TITLE "19:cjc023_0742"
    INDEX 01 05:35:05
  TRACK 285 AUDIO
    TITLE "0:"
    INDEX 01 05:37:51
  TRACK 286 AUDIO
    TITLE "18:cjc023_0743"
    INDEX 01 05:38:46
  TRACK 287 AUDIO
    TITLE "0:"
    INDEX 01 05:39:67
  TRACK 288 AUDIO
    TITLE "19:cjc023_0744"
    INDEX 01 05:40:18
  TRACK 289 AUDIO
    TITLE "0:"
    INDEX 01 05:42:38
  TRACK 290 AUDIO
    TITLE "18:cjc023_0745"
    INDEX 01 05:43:32
  TRACK 291 AUDIO
    TITLE "0:"
    INDEX 01 05:44:41
  TRACK 292 AUDIO
    TITLE "19:cjc023_0746"
    INDEX 01 05:44:63
  TRACK 293 AUDIO
    TITLE "0:"
    INDEX 01 05:48:12
  TRACK 294 AUDIO
    TITLE "18:cjc023_0747"
    INDEX 01 05:49:07
  TRACK 295 AUDIO
    TITLE "0:"
    INDEX 01 05:50:12
  TRACK 296 AUDIO
    TITLE "19:cjc023_0748"
    INDEX 01 05:50:36
  TRACK 297 AUDIO
    TITLE "0:"
    INDEX 01 05:53:54
  TRACK 298 AUDIO
    TITLE "18:cjc023_0749"
    INDEX 01 05:54:53
  TRACK 299 AUDIO
    TITLE "0:"
    INDEX 01 05:55:74
  TRACK 300 AUDIO
    TITLE "19:cjc023_0750"
    INDEX 01 05:56:23
  TRACK 301 AUDIO
    TITLE "0:"
    INDEX 01 05:58:12
  TRACK 302 AUDIO
    TITLE "18:cjc023_0751"
    INDEX 01 05:59:17
  TRACK 303 AUDIO
    TITLE "0:"
    INDEX 01 06:00:36
  TRACK 304 AUDIO
    TITLE "19:cjc023_0752"
    INDEX 01 06:00:56
  TRACK 305 AUDIO
    TITLE "0:"
    INDEX 01 06:02:70
  TRACK 306 AUDIO
    TITLE "18:cjc023_0753"
    INDEX 01 06:03:66
  TRACK 307 AUDIO
    TITLE "0:"
    INDEX 01 06:04:71
  TRACK 308 AUDIO
    TITLE "19:cjc023_0754"
    INDEX 01 06:05:18
  TRACK 309 AUDIO
    TITLE "0:"
    INDEX 01 06:07:66
  TRACK 310 AUDIO
    TITLE "18:cjc023_0755"
    INDEX 01 06:08:63
  TRACK 311 AUDIO
    TITLE "0:"
    INDEX 01 06:10:15
  TRACK 312 AUDIO
    TITLE "19:cjc023_0756"
    INDEX 01 06:10:39
  TRACK 313 AUDIO
    TITLE "0:"
    INDEX 01 06:13:13
  TRACK 314 AUDIO
    TITLE "18:cjc023_0757"
    INDEX 01 06:14:11
  TRACK 315 AUDIO
    TITLE "0:"
    INDEX 01 06:15:30
  TRACK 316 AUDIO
    TITLE "19:cjc023_0758"
    INDEX 01 06:15:55
  TRACK 317 AUDIO
    TITLE "0:"
    INDEX 01 06:17:52
  TRACK 318 AUDIO
    TITLE "18:cjc023_0759"
    INDEX 01 06:18:48
  TRACK 319 AUDIO
    TITLE "0:"
    INDEX 01 06:19:51
  TRACK 320 AUDIO
    TITLE "19:cjc023_0760"
    INDEX 01 06:20:00
  TRACK 321 AUDIO
    TITLE "0:"
    INDEX 01 06:21:38
  TRACK 322 AUDIO
    TITLE "18:cjc023_0761"
    INDEX 01 06:22:36
  TRACK 323 AUDIO
    TITLE "0:"
    INDEX 01 06:23:51
  TRACK 324 AUDIO
    TITLE "19:cjc023_0762"
    INDEX 01 06:24:00
  TRACK 325 AUDIO
    TITLE "0:"
    INDEX 01 06:26:06
  TRACK 326 AUDIO
    TITLE "18:cjc023_0763"
    INDEX 01 06:27:06
  TRACK 327 AUDIO
    TITLE "0:"
    INDEX 01 06:28:15
  TRACK 328 AUDIO
    TITLE "19:cjc023_0764"
    INDEX 01 06:28:38
  TRACK 329 AUDIO
    TITLE "0:"
    INDEX 01 06:31:52
  TRACK 330 AUDIO
    TITLE "18:cjc023_0765"
    INDEX 01 06:32:52
  TRACK 331 AUDIO
    TITLE "0:"
    INDEX 01 06:33:57
  TRACK 332 AUDIO
    TITLE "19:cjc023_0766"
    INDEX 01 06:34:06
  TRACK 333 AUDIO
    TITLE "0:"
    INDEX 01 06:36:26
  TRACK 334 AUDIO
    TITLE "18:cjc023_0767"
    INDEX 01 06:37:30
  TRACK 335 AUDIO
    TITLE "0:"
    INDEX 01 06:38:39
  TRACK 336 AUDIO
    TITLE "19:cjc023_0768"
    INDEX 01 06:38:62
  TRACK 337 AUDIO
    TITLE "0:"
    INDEX 01 06:41:57
  TRACK 338 AUDIO
    TITLE "18:cjc023_0769"
    INDEX 01 06:42:58
  TRACK 339 AUDIO
    TITLE "0:"
    INDEX 01 06:44:00
  TRACK 340 AUDIO
    TITLE "19:cjc023_0770"
    INDEX 01 06:44:24
  TRACK 341 AUDIO
    TITLE "0:"
    INDEX 01 06:47:04
  TRACK 342 AUDIO
    TITLE "18:cjc023_0771"
    INDEX 01 06:48:00
  TRACK 343 AUDIO
    TITLE "0:"
    INDEX 01 06:49:05
  TRACK 344 AUDIO
    TITLE "19:cjc023_0772"
    INDEX 01 06:49:25
  TRACK 345 AUDIO
    TITLE "0:"
    INDEX 01 06:52:08
  TRACK 346 AUDIO
    TITLE "18:cjc023_0773"
    INDEX 01 06:53:05
  TRACK 347 AUDIO
    TITLE "0:"
    INDEX 01 06:54:18
  TRACK 348 AUDIO
    TITLE "19:cjc023_0774"
    INDEX 01 06:54:42
  TRACK 349 AUDIO
    TITLE "0:"
    INDEX 01 06:56:07
  TRACK 350 AUDIO
    TITLE "18:cjc023_0775"
    INDEX 01 06:57:07
  TRACK 351 AUDIO
    TITLE "0:"
    INDEX 01 06:58:12
  TRACK 352 AUDIO
    TITLE "19:cjc023_0776"
    INDEX 01 06:58:42
  TRACK 353 AUDIO
    TITLE "0:"
    INDEX 01 07:00:03
  TRACK 354 AUDIO
    TITLE "18:cjc023_0777"
    INDEX 01 07:01:03
  TRACK 355 AUDIO
    TITLE "0:"
    INDEX 01 07:02:39
  TRACK 356 AUDIO
    TITLE "19:cjc023_0778"
    INDEX 01 07:02:61
  TRACK 357 AUDIO
    TITLE "0:"
    INDEX 01 07:05:30
  TRACK 358 AUDIO
    TITLE "18:cjc023_0779"
    INDEX 01 07:06:25
  TRACK 359 AUDIO
    TITLE "0:"
    INDEX 01 07:07:54
  TRACK 360 AUDIO
    TITLE "19:cjc023_0780"
    INDEX 01 07:08:03
  TRACK 361 AUDIO
    TITLE "0:"
    INDEX 01 07:10:07
  TRACK 362 AUDIO
    TITLE "18:cjc023_0781"
    INDEX 01 07:11:03
  TRACK 363 AUDIO
    TITLE "0:"
    INDEX 01 07:12:26
  TRACK 364 AUDIO
    TITLE "19:cjc023_0782"
    INDEX 01 07:12:48
  TRACK 365 AUDIO
    TITLE "0:"
    INDEX 01 07:15:05
  TRACK 366 AUDIO
    TITLE "18:cjc023_0783"
    INDEX 01 07:16:00
  TRACK 367 AUDIO
    TITLE "0:"
    INDEX 01 07:17:23
  TRACK 368 AUDIO
    TITLE "19:cjc023_0784"
    INDEX 01 07:17:45
  TRACK 369 AUDIO
    TITLE "0:"
    INDEX 01 07:20:00
  TRACK 370 AUDIO
    TITLE "18:cjc023_0785"
    INDEX 01 07:20:72
  TRACK 371 AUDIO
    TITLE "0:"
    INDEX 01 07:21:72
  TRACK 372 AUDIO
    TITLE "19:cjc023_0786"
    INDEX 01 07:22:20
  TRACK 373 AUDIO
    TITLE "0:"
    INDEX 01 07:24:51
  TRACK 374 AUDIO
    TITLE "18:cjc023_0787"
    INDEX 01 07:25:44
  TRACK 375 AUDIO
    TITLE "0:"
    INDEX 01 07:26:69
  TRACK 376 AUDIO
    TITLE "19:cjc023_0788"
    INDEX 01 07:27:22
  TRACK 377 AUDIO
    TITLE "0:"
    INDEX 01 07:29:54
  TRACK 378 AUDIO
    TITLE "18:cjc023_0789"
    INDEX 01 07:30:49
  TRACK 379 AUDIO
    TITLE "0:"
    INDEX 01 07:31:61
  TRACK 380 AUDIO
    TITLE "19:cjc023_0790"
    INDEX 01 07:32:05
  TRACK 381 AUDIO
    TITLE "0:"
    INDEX 01 07:34:12
  TRACK 382 AUDIO
    TITLE "18:cjc023_0791"
    INDEX 01 07:35:07
  TRACK 383 AUDIO
    TITLE "0:"
    INDEX 01 07:36:30
  TRACK 384 AUDIO
    TITLE "19:cjc023_0792"
    INDEX 01 07:36:56
  TRACK 385 AUDIO
    TITLE "0:"
    INDEX 01 07:38:45
  TRACK 386 AUDIO
    TITLE "18:cjc023_0793"
    INDEX 01 07:39:40
  TRACK 387 AUDIO
    TITLE "0:"
    INDEX 01 07:40:44
  TRACK 388 AUDIO
    TITLE "19:cjc023_0794"
    INDEX 01 07:41:00
  TRACK 389 AUDIO
    TITLE "0:"
    INDEX 01 07:43:15
  TRACK 390 AUDIO
    TITLE "18:cjc023_0795"
    INDEX 01 07:44:10
  TRACK 391 AUDIO
    TITLE "0:"
    INDEX 01 07:45:18
  TRACK 392 AUDIO
    TITLE "19:cjc023_0796"
    INDEX 01 07:45:37
  TRACK 393 AUDIO
    TITLE "0:"
    INDEX 01 07:47:24
  TRACK 394 AUDIO
    TITLE "18:cjc023_0797"
    INDEX 01 07:48:20
  TRACK 395 AUDIO
    TITLE "0:"
    INDEX 01 07:49:27
  TRACK 396 AUDIO
    TITLE "19:cjc023_0798"
    INDEX 01 07:49:51
  TRACK 397 AUDIO
    TITLE "0:"
    INDEX 01 07:51:42
  TRACK 398 AUDIO
    TITLE "18:cjc023_0799"
    INDEX 01 07:52:41
  TRACK 399 AUDIO
    TITLE "0:"
    INDEX 01 07:53:60
  TRACK 400 AUDIO
    TITLE "19:cjc023_0800"
    INDEX 01 07:54:05
  TRACK 401 AUDIO
    TITLE "0:"
    INDEX 01 07:56:04
